<svg width="30" height="30" viewBox="0 0 30 30" fill="none" xmlns="http://www.w3.org/2000/svg">
<path fill-rule="evenodd" clip-rule="evenodd" d="M8.69061 4.62244C9.36955 4.26078 9.62674 3.4172 9.26506 2.73827C8.90338 2.05934 8.05981 1.80215 7.38088 2.16382C5.4643 3.18481 3.7541 4.55298 2.33731 6.19869C1.83542 6.78167 1.90116 7.66112 2.48414 8.16299C3.06712 8.66489 3.94657 8.59915 4.44846 8.01617C5.64012 6.63196 7.07859 5.4812 8.69061 4.62244ZM15 28.0002C21.154 28.0002 26.1429 23.0116 26.1429 16.8574C26.1429 10.7034 21.154 5.71457 15 5.71457C8.846 5.71457 3.85716 10.7034 3.85716 16.8574C3.85716 23.0116 8.846 28.0002 15 28.0002ZM20.7351 2.73827C21.0967 2.05934 21.9404 1.80215 22.6192 2.16382C24.5357 3.18481 26.246 4.55298 27.6628 6.19869C28.1646 6.78167 28.0988 7.66112 27.5159 8.16299C26.9329 8.66489 26.0536 8.59915 25.5516 8.01617C24.36 6.63196 22.9215 5.4812 21.3095 4.62244C20.6305 4.26078 20.3734 3.4172 20.7351 2.73827ZM16.1607 11.2857C16.1607 10.6447 15.6411 10.125 15 10.125C14.359 10.125 13.8393 10.6447 13.8393 11.2857V16.8572C13.8393 17.4982 14.359 18.0179 15 18.0179H19.6429C20.2839 18.0179 20.8036 17.4982 20.8036 16.8572C20.8036 16.2161 20.2839 15.6965 19.6429 15.6965H16.1607V11.2857Z" fill="white"/>
</svg>
