<svg width="30" height="30" viewBox="0 0 30 30" fill="none" xmlns="http://www.w3.org/2000/svg">
<path d="M24.37 17.479L26.8275 21.7365C26.9286 21.9118 26.9857 22.109 26.9939 22.3112C27.0021 22.5134 26.9611 22.7146 26.8744 22.8975C26.7878 23.0804 26.6581 23.2395 26.4964 23.3613C26.3348 23.483 26.146 23.5637 25.9463 23.5965L25.805 23.6103L25.665 23.609L21.9988 23.3715L20.37 26.6665C20.2816 26.8449 20.1519 26.9997 19.9916 27.1179C19.8314 27.2361 19.6452 27.3143 19.4486 27.3461C19.252 27.3779 19.0507 27.3623 18.8614 27.3006C18.6721 27.2389 18.5002 27.133 18.36 26.9915L18.2575 26.874L18.1675 26.7365L15.7075 22.4778C17.4392 22.3695 19.1224 21.8619 20.6252 20.9947C22.1281 20.1275 23.4098 18.9242 24.37 17.479Z" fill="white"/>
<path d="M14.2875 22.4775L11.83 26.7375C11.7304 26.9101 11.5911 27.0564 11.4235 27.1643C11.256 27.2721 11.0651 27.3384 10.8668 27.3576C10.6685 27.3768 10.4684 27.3484 10.2833 27.2747C10.0982 27.2009 9.93335 27.0841 9.80251 26.9338L9.70751 26.8088L9.62751 26.6663L7.99751 23.3725L4.33376 23.61C4.13195 23.623 3.92999 23.5869 3.7452 23.5047C3.5604 23.4226 3.39827 23.2969 3.27269 23.1384C3.14711 22.9799 3.06182 22.7933 3.02412 22.5946C2.98643 22.3959 2.99746 22.191 3.05626 21.9975L3.10626 21.8638L3.16876 21.7388L5.62876 17.4775C6.58836 18.9227 7.86935 20.1262 9.37151 20.9938C10.8737 21.8614 12.5562 22.3684 14.2875 22.4775Z" fill="white"/>
<path d="M15 2.5L15.3 2.505C17.5674 2.58278 19.7159 3.5382 21.2924 5.16971C22.8689 6.80123 23.75 8.98127 23.75 11.25L23.7463 11.4913L23.7375 11.7312L23.715 12.0375L23.6825 12.34L23.6525 12.5625C23.5702 13.1021 23.4376 13.6327 23.2563 14.1475L23.1112 14.5325L22.92 14.9675C22.2123 16.475 21.0892 17.7493 19.6826 18.6407C18.276 19.5321 16.6442 20.0037 14.9789 20C13.3135 19.9963 11.6838 19.5176 10.2812 18.6199C8.87845 17.7223 7.761 16.4431 7.06 14.9325L6.8975 14.5612L6.8325 14.395L6.7325 14.1237L6.61375 13.7562C6.57134 13.6139 6.53257 13.4706 6.4975 13.3262L6.4225 12.9875L6.36125 12.6487L6.33625 12.475L6.2875 12.0713L6.2575 11.615L6.25 11.25C6.24996 8.98127 7.13112 6.80123 8.70759 5.16971C10.2841 3.5382 12.4326 2.58278 14.7 2.505L15 2.5Z" fill="white"/>
</svg>
