<svg width="30" height="30" viewBox="0 0 30 30" fill="none" xmlns="http://www.w3.org/2000/svg">
<path fill-rule="evenodd" clip-rule="evenodd" d="M16.4671 5.18602C15.4991 5.0534 14.5002 5.0534 13.5322 5.18602C13.3688 5.2084 13.2068 5.31509 13.1079 5.51395C12.9482 5.83496 12.7644 6.26041 12.6116 6.68628C13.3482 6.66695 14.1432 6.65616 15 6.65616C15.8566 6.65616 16.6513 6.66694 17.3877 6.68626C17.2349 6.2604 17.0511 5.83496 16.8914 5.51395C16.7925 5.31509 16.6304 5.2084 16.4671 5.18602ZM11.243 4.58359C10.9641 5.14424 10.6086 5.99643 10.3987 6.77744C8.50865 6.88634 7.13418 7.05313 6.16881 7.21238C4.55598 7.47846 3.48052 8.79394 3.32984 10.3288C2.89005 14.8083 2.89005 18.8479 3.32984 23.3275C3.48052 24.8623 4.55598 26.1778 6.16881 26.4438C7.79025 26.7113 10.5659 27.0001 15 27.0001C19.4341 27.0001 22.2098 26.7113 23.8312 26.4438C25.4441 26.1778 26.5195 24.8623 26.6702 23.3275C27.11 18.8479 27.11 14.8083 26.6702 10.3288C26.5195 8.79394 25.4441 7.47846 23.8312 7.21238C22.8658 7.0531 21.491 6.8863 19.6006 6.7774C19.3908 5.9964 19.0352 5.14423 18.7564 4.58359C18.376 3.8189 17.6511 3.24224 16.7495 3.11872C15.5941 2.96043 14.4053 2.96043 13.2498 3.11872C12.3482 3.24224 11.6233 3.8189 11.243 4.58359ZM24.9096 15.917C21.8143 16.8627 17.0692 18.2007 15 18.2007C12.9308 18.2007 8.18572 16.8628 5.09045 15.9171C5.05444 18.2851 5.15874 20.6316 5.40337 23.1233C5.47115 23.8138 5.91719 24.2876 6.50747 24.385C7.99345 24.6302 10.6527 24.9135 15 24.9135C19.3473 24.9135 22.0066 24.6302 23.4926 24.385C24.0829 24.2876 24.5289 23.8138 24.5967 23.1233C24.8413 20.6316 24.9456 18.285 24.9096 15.917Z" fill="white"/>
</svg>
