<svg width="30" height="30" viewBox="0 0 30 30" fill="none" xmlns="http://www.w3.org/2000/svg">
<path fill-rule="evenodd" clip-rule="evenodd" d="M12.4358 3.92731C12.635 3.36421 13.004 2.87674 13.4918 2.53205C13.9796 2.18736 14.5623 2.00242 15.1596 2.0027H16.3346C16.9888 2.00085 17.6237 2.22475 18.1319 2.63661C18.6402 3.04847 18.9909 3.62308 19.1247 4.26346C19.2585 4.90383 19.1673 5.57077 18.8665 6.1517C18.5656 6.73264 18.0736 7.19201 17.4734 7.45228L14.9575 8.55288C14.8503 8.59935 14.7627 8.68161 14.7095 8.78559H17.9865C18.3027 8.78559 18.6059 8.91119 18.8295 9.13476C19.053 9.35834 19.1786 9.66157 19.1786 9.97775C19.1786 10.2939 19.053 10.5972 18.8295 10.8207C18.6059 11.0443 18.3027 11.1699 17.9865 11.1699H13.4658C13.3091 11.1702 13.1539 11.1395 13.009 11.0797C12.8642 11.0199 12.7325 10.9321 12.6216 10.8214C12.5107 10.7107 12.4227 10.5792 12.3627 10.4344C12.3027 10.2896 12.2718 10.1345 12.2718 9.97775V9.01448C12.2718 7.8662 12.9508 6.82855 14.0018 6.36885L16.5197 5.26825C16.6187 5.22766 16.7004 5.15365 16.7505 5.05907C16.8007 4.9645 16.8161 4.85535 16.7941 4.75059C16.7721 4.64583 16.7141 4.5521 16.6301 4.48567C16.5462 4.41925 16.4416 4.38434 16.3346 4.38701H15.1596C15.0555 4.38697 14.9539 4.41924 14.8688 4.47936C14.7837 4.53949 14.7194 4.62451 14.6847 4.72272C14.5792 5.02094 14.3596 5.26505 14.0741 5.40134C13.7887 5.53763 13.4608 5.55494 13.1625 5.44946C12.8643 5.34398 12.6202 5.12436 12.4839 4.8389C12.3476 4.55344 12.3303 4.22553 12.4358 3.92731ZM24.0789 2.54441C24.2909 2.30292 24.5714 2.13174 24.8832 2.05369C25.1949 1.97564 25.523 1.99442 25.8238 2.10753C26.1246 2.22063 26.3838 2.4227 26.5668 2.68681C26.7499 2.95091 26.8481 3.26453 26.8485 3.58588V7.09368C27.1525 7.1109 27.4384 7.2438 27.6476 7.46513C27.8567 7.68645 27.9732 7.97942 27.9732 8.28393C27.9732 8.58844 27.8567 8.88141 27.6476 9.10273C27.4384 9.32406 27.1525 9.45696 26.8485 9.47418V9.97965C26.8485 10.2958 26.7229 10.5991 26.4993 10.8226C26.2758 11.0462 25.9725 11.1718 25.6563 11.1718C25.3402 11.1718 25.0369 11.0462 24.8134 10.8226C24.5898 10.5991 24.4642 10.2958 24.4642 9.97965V9.47609H21.5458C21.2373 9.47662 20.9353 9.38811 20.6759 9.22119C20.4165 9.05426 20.2108 8.816 20.0835 8.53504C19.9562 8.25407 19.9128 7.94233 19.9583 7.63725C20.0038 7.33218 20.1365 7.04673 20.3403 6.81519L24.0789 2.54441ZM23.2682 7.09177L24.4642 5.72413V7.09177H23.2682ZM18.6522 27.9707C17.4817 28.0961 16.3037 27.8167 15.3142 27.1791C10.3762 23.8531 6.12736 19.6042 2.80128 14.6663C2.17651 13.667 1.91332 12.4838 2.05565 11.3139C2.19798 10.1441 2.7372 9.05842 3.58333 8.23815L4.30816 7.51332C4.63313 7.19182 5.07181 7.0115 5.52893 7.0115C5.98606 7.0115 6.42473 7.19182 6.7497 7.51332L9.68717 10.5652C10.0075 10.887 10.1873 11.3225 10.1873 11.7765C10.1873 12.2305 10.0075 12.666 9.68717 12.9877C9.36568 13.3127 9.18535 13.7513 9.18535 14.2085C9.18535 14.6656 9.36568 15.1043 9.68717 15.4292L14.5512 20.2932C14.8761 20.6147 15.3148 20.7951 15.7719 20.7951C16.2291 20.7951 16.6677 20.6147 16.9927 20.2932C17.3144 19.9729 17.7499 19.7931 18.2039 19.7931C18.6579 19.7931 19.0934 19.9729 19.4152 20.2932L22.4671 23.3261C22.7886 23.651 22.9689 24.0897 22.9689 24.5468C22.9689 25.004 22.7886 25.4426 22.4671 25.7676L21.7423 26.4924C20.9111 27.3234 19.8207 27.845 18.6522 27.9707Z" fill="white"/>
</svg>
