<svg width="110" height="111" viewBox="0 0 110 111" fill="none" xmlns="http://www.w3.org/2000/svg">
<g clip-path="url(#clip0_1838_2539)">
<path d="M76.8978 105.354C68.4782 109.304 59.5606 110.623 50.3896 109.85C37.7324 108.781 26.6379 103.895 17.3639 95.1444C7.64765 85.9777 1.85569 74.7588 0.35725 61.4403C-2.71691 34.1635 14.2769 8.99921 40.4888 1.92349C71.2562 -6.38018 102.659 12.9664 108.867 44.3134C111.748 58.8642 109.151 72.5691 100.899 85.0546C97.8932 81.9633 94.8877 78.8548 91.8092 75.7978C90.8217 74.8103 89.6925 73.9645 88.6277 73.0542L86.2921 70.5425L85.7854 70.0874L85.8155 70.1432L85.3389 69.6795L85.296 69.804C84.91 69.156 84.4705 68.5413 83.9821 67.9664C69.9996 53.9581 56.0027 39.9612 41.9915 25.9758C41.4161 25.4958 40.8014 25.0649 40.1539 24.6877L40.287 24.6319L39.8147 24.1596L39.8748 24.1897L39.4197 23.6873C37.406 20.9524 36.6547 20.7205 33.4903 21.9957C31.3092 22.8759 29.1539 23.8033 26.9985 24.735C23.6754 26.1647 22.0181 28.8482 21.417 32.2873C20.481 37.5297 22.0996 42.3255 24.2507 46.9411C29.317 57.8165 37.1055 66.5796 45.9974 74.4539C46.7273 75.098 47.367 75.8407 48.0497 76.5406L48.5821 76.9055L48.5348 76.8583L49.0243 77.3263L48.9814 77.2791L49.4494 77.7514V77.6483L50.2651 78.2022V78.1163C50.6945 78.8119 50.9693 79.6276 51.5231 80.1858C58.5588 87.2787 65.6202 94.3501 72.7074 101.4C74.0813 102.74 75.5024 104.032 76.8978 105.354Z" fill="#FDC115"/>
<path d="M76.897 105.354C75.5016 104.032 74.0718 102.74 72.7108 101.383C65.6351 94.3387 58.5737 87.2672 51.5266 80.1686C50.9727 79.6105 50.6679 78.7947 50.2686 78.0991C51.6296 79.0137 52.9778 79.9411 54.3474 80.8341C60.1222 84.6124 66.1159 87.8283 73.1187 88.7342C79.0137 89.4941 83.363 87.2315 85.7545 81.886C86.6561 79.8724 87.5191 77.833 88.2705 75.7549C88.571 74.9219 88.5152 73.9559 88.6269 73.0543C89.6917 73.9645 90.8209 74.8103 91.8084 75.7978C94.8654 78.8548 97.8708 81.9633 100.898 85.0546C95.1846 94.1364 86.8008 101.227 76.897 105.354Z" fill="#F78D20"/>
<path d="M88.6267 73.0542C88.5151 73.9559 88.5709 74.9219 88.2703 75.7548C87.519 77.8329 86.656 79.8723 85.7543 81.886C83.3628 87.2314 79.0135 89.4941 73.1185 88.7341C66.1158 87.8282 60.122 84.6124 54.3472 80.8341C52.9776 79.941 51.6294 79.0136 50.2684 78.0991V78.185L49.4526 77.6311V77.7341L48.9846 77.2619L49.0276 77.3091L48.5381 76.8411L48.5853 76.8883L48.0529 76.5234C47.3703 75.8235 46.7305 75.0808 46.0006 74.4367C37.1088 66.5624 29.3203 57.7993 24.2539 46.9238C22.1072 42.3083 20.4842 37.5125 21.4202 32.2701C22.0299 28.8353 23.6872 26.1475 27.0018 24.7178C29.1486 23.7861 31.2953 22.8587 33.4936 21.9785C36.6579 20.6904 37.4093 20.9352 39.423 23.6701L39.8781 24.1725L39.818 24.1424L40.2902 24.6147L40.1571 24.6662C41.8531 27.7662 43.5276 30.879 45.2493 33.966C46.9194 36.9715 46.6919 38.0706 43.8839 40.0199C38.8433 43.5191 37.624 49.4957 41.6556 54.1198C46.0613 59.1581 50.8037 63.8918 55.85 68.2884C60.4784 72.32 66.4421 71.1007 69.9456 66.0601C71.8948 63.2564 73.0026 63.0288 75.9995 64.699C79.0865 66.4164 82.1993 68.0909 85.2992 69.7868L85.3422 69.6623L85.8187 70.126L85.7887 70.0702L86.2953 70.5253L88.6267 73.0542Z" fill="#FFFEFC"/>
<path d="M85.2954 69.804C82.1954 68.1081 79.0826 66.4379 75.9956 64.7162C72.9901 63.046 71.891 63.2736 69.9417 66.0772C66.4382 71.1178 60.4745 72.3372 55.8461 68.3056C50.7998 63.909 46.0575 59.1753 41.6517 54.137C37.6201 49.5128 38.8395 43.5363 43.8801 40.037C46.688 38.0878 46.9156 36.9801 45.2454 33.9832C43.528 30.8961 41.8492 27.7833 40.1533 24.6834C40.8006 25.069 41.4152 25.507 41.9909 25.9929C55.9992 39.9784 69.9961 53.9752 83.9815 67.9836C84.4691 68.553 84.9086 69.1619 85.2954 69.804Z" fill="#F78D20"/>
</g>
<defs>
<clipPath id="clip0_1838_2539">
<rect width="110" height="110.064" fill="white"/>
</clipPath>
</defs>
</svg>
