<svg width="30" height="30" viewBox="0 0 30 30" fill="none" xmlns="http://www.w3.org/2000/svg">
<path fill-rule="evenodd" clip-rule="evenodd" d="M5.57141 5.14286C5.57141 3.95939 6.53081 3 7.71427 3H11.5714C13.9384 3 15.8571 4.91878 15.8571 7.28571V9.42857C15.8571 10.612 16.8166 11.5714 18 11.5714H20.1428C22.5098 11.5714 24.4286 13.4902 24.4286 15.8571V24.8571C24.4286 26.0406 23.4691 27 22.2857 27H7.71427C6.53081 27 5.57141 26.0406 5.57141 24.8571V5.14286ZM17.5714 7.28571C17.5714 5.78509 17.0206 4.41312 16.1099 3.36103C19.9944 4.37574 23.0528 7.43415 24.0675 11.3186C23.0154 10.408 21.6435 9.85714 20.1428 9.85714H18C17.7633 9.85714 17.5714 9.66527 17.5714 9.42857V7.28571ZM12.4286 13.2857C11.9552 13.2857 11.5714 13.6695 11.5714 14.1429C11.5714 14.6162 11.9552 15 12.4286 15H12.8571C13.7359 15 14.4911 15.5289 14.8217 16.2857H12.4286C11.9552 16.2857 11.5714 16.6695 11.5714 17.1429C11.5714 17.6162 11.9552 18 12.4286 18H14.8217C14.4911 18.7568 13.7359 19.2857 12.8571 19.2857H12.4286C12.0819 19.2857 11.7694 19.4945 11.6367 19.8149C11.504 20.1351 11.5773 20.5038 11.8225 20.7489L14.3939 23.3203C14.7287 23.6551 15.2714 23.6551 15.6062 23.3203C15.9408 22.9856 15.9408 22.443 15.6062 22.1082L14.2419 20.744C15.4286 20.2873 16.3326 19.261 16.6187 18H17.5714C18.0448 18 18.4286 17.6162 18.4286 17.1429C18.4286 16.6695 18.0448 16.2857 17.5714 16.2857H16.6187C16.5129 15.8194 16.3226 15.3851 16.0648 15H17.5714C18.0448 15 18.4286 14.6162 18.4286 14.1429C18.4286 13.6695 18.0448 13.2857 17.5714 13.2857H13.2857C13.2392 13.2857 13.1935 13.2895 13.1489 13.2966C13.0526 13.2894 12.9553 13.2857 12.8571 13.2857H12.4286Z" fill="white"/>
</svg>
