<svg width="110" height="110" viewBox="0 0 110 110" fill="none" xmlns="http://www.w3.org/2000/svg">
<g clip-path="url(#clip0_1838_2553)">
<path d="M55.0086 -6.68344e-05C62.2483 -0.010334 69.4186 1.41084 76.1071 4.1817C82.7956 6.95256 88.8702 11.0184 93.9817 16.1455C99.0932 21.2725 103.141 27.3595 105.891 34.0564C108.642 40.7533 110.041 47.9279 110.009 55.1675C110.009 85.482 85.3446 110.009 54.8926 110C24.4406 109.991 -0.0171784 85.3402 9.0532e-06 54.7206C0.0171966 24.5437 24.6941 -6.68344e-05 55.0086 -6.68344e-05ZM20.1567 34.6284V36.3472C20.1567 49.1605 20.1567 61.9738 20.1567 74.787C20.1567 77.4511 20.5649 77.8464 23.3406 77.8464C44.4555 77.8464 65.5718 77.8464 86.6895 77.8464C89.4266 77.8464 89.8348 77.4167 89.8391 74.7484C89.8391 62.0038 89.8391 49.2564 89.8391 36.5062C89.8391 35.9906 89.7402 35.4792 89.6672 34.7874C89.0055 35.2816 88.5414 35.6038 88.0945 35.9562C78.0685 43.9226 68.0425 51.8904 58.0164 59.8597C55.232 62.0769 54.7551 62.0812 51.9363 59.821C48.4186 57.0051 44.8909 54.1993 41.3531 51.4035L20.1567 34.6284ZM55.0086 55.8722L84.657 32.2995H25.3301L55.0086 55.8722Z" fill="#FDC115"/>
<path d="M20.1562 34.6285L41.3613 51.4508C44.8934 54.2581 48.4211 57.0639 51.9445 59.8684C54.7633 62.1285 55.2402 62.1242 58.0246 59.907C68.0506 51.932 78.0767 43.9642 88.1027 36.0035C88.5324 35.6512 89.0137 35.3289 89.6754 34.8348C89.7484 35.5094 89.8473 36.0207 89.8473 36.5535C89.8473 49.2923 89.8473 62.0397 89.8473 74.7957C89.8473 77.4855 89.4176 77.8937 86.6977 77.8937C65.5828 77.8937 44.4665 77.8937 23.3488 77.8937C20.573 77.8937 20.1648 77.4984 20.1648 74.8344C20.1648 62.0211 20.1648 49.2078 20.1648 36.3945L20.1562 34.6285Z" fill="#FFFFFE"/>
<path d="M55.0086 55.8722L25.3301 32.2996H84.6957L55.0086 55.8722Z" fill="#FFFFFD"/>
</g>
<defs>
<clipPath id="clip0_1838_2553">
<rect width="110" height="110" fill="white"/>
</clipPath>
</defs>
</svg>
