<svg width="52" height="52" viewBox="0 0 52 52" fill="none" xmlns="http://www.w3.org/2000/svg">
<rect width="52" height="52" rx="8.58716" fill="#2AA81A"/>
<path d="M26.2385 7.15601C36.7774 7.15601 45.321 15.6995 45.321 26.2385C45.321 36.7774 36.7774 45.3211 26.2385 45.3211C22.739 45.3211 19.4595 44.3792 16.6397 42.7348L7.16392 45.3211L9.7438 35.8399C8.09855 33.0197 7.15594 29.7392 7.15594 26.2385C7.15594 15.6995 15.6995 7.15601 26.2385 7.15601ZM19.3522 17.2856C19.1053 17.303 18.8633 17.3633 18.6428 17.476C18.4775 17.5606 18.324 17.6829 18.0828 17.9107C17.8551 18.1257 17.7231 18.3135 17.584 18.4946C16.8785 19.4131 16.4993 20.5406 16.5064 21.6988C16.5102 22.635 16.7534 23.5449 17.1375 24.3944C17.9163 26.1172 19.2006 27.9384 20.8972 29.6274C21.3047 30.0331 21.704 30.4432 22.1345 30.8222C24.2402 32.6762 26.7495 34.0131 29.4629 34.7268C29.4629 34.7268 30.5315 34.8909 30.5472 34.8919C30.9011 34.911 31.2545 34.8854 31.6089 34.8673C32.1648 34.8387 32.7075 34.6883 33.1987 34.4267C33.5145 34.2586 33.6639 34.175 33.929 34.0078C33.929 34.0078 34.0103 33.9528 34.1671 33.8361C34.4247 33.6441 34.5839 33.509 34.7982 33.2865C34.9562 33.1224 35.092 32.9285 35.197 32.71C35.3462 32.3986 35.4964 31.8042 35.5561 31.3105C35.6017 30.9334 35.588 30.7273 35.583 30.5997C35.5748 30.3943 35.4052 30.1831 35.2193 30.0934L34.1097 29.5946C34.1097 29.5946 32.4505 28.8725 31.4356 28.4096C31.3299 28.3613 31.2143 28.339 31.0981 28.3319C30.8435 28.3162 30.5582 28.3827 30.3768 28.5739C30.3672 28.57 30.2409 28.6792 28.8603 30.3518C28.7841 30.4428 28.6057 30.6407 28.2971 30.6222C28.2506 30.6189 28.2042 30.6123 28.159 30.6004C28.034 30.5674 27.9122 30.5239 27.7932 30.4735C27.5571 30.3733 27.4743 30.3354 27.3131 30.2659C26.2114 29.7846 25.2004 29.1408 24.3068 28.3529C24.0671 28.1418 23.8442 27.9146 23.6145 27.6919C22.8126 26.9146 22.1562 26.088 21.6678 25.2726C21.6412 25.2281 21.6001 25.1638 21.5558 25.0919C21.4759 24.9619 21.3878 24.8074 21.3602 24.7013C21.2892 24.4205 21.4774 24.195 21.4774 24.195C21.4774 24.195 21.9419 23.6872 22.1577 23.4111C22.3653 23.1453 22.5445 22.8854 22.6586 22.7001C22.8834 22.3387 22.9546 21.9652 22.8365 21.6771C22.3011 20.3719 21.7487 19.0737 21.1795 17.783C21.0671 17.5282 20.7329 17.3431 20.429 17.308C20.3261 17.2962 20.2232 17.2842 20.1199 17.2774C19.8641 17.2649 19.6077 17.2677 19.3522 17.2856Z" fill="white"/>
</svg>
