<svg width="110" height="110" viewBox="0 0 110 110" fill="none" xmlns="http://www.w3.org/2000/svg">
<circle cx="55" cy="55" r="55" fill="#2AA81A"/>
<path d="M55.003 21C73.7805 21 89.003 36.2223 89.003 55C89.003 73.7775 73.7805 89 55.003 89C48.7677 89 42.9245 87.3218 37.9005 84.392L21.0171 89L25.6138 72.1071C22.6824 67.0822 21.0029 61.2373 21.0029 55C21.0029 36.2223 36.2252 21 55.003 21ZM42.7335 39.0483C42.2936 39.0792 41.8622 39.1867 41.4695 39.3876C41.1749 39.5383 40.9014 39.7561 40.4717 40.1619C40.0659 40.5451 39.8307 40.8797 39.5829 41.2023C38.326 42.8389 37.6504 44.8478 37.6629 46.9113C37.6698 48.5794 38.1031 50.2006 38.7873 51.7142C40.175 54.7838 42.4634 58.0287 45.4862 61.0381C46.2123 61.7609 46.9237 62.4916 47.6908 63.1668C51.4425 66.4702 55.9135 68.8523 60.748 70.1239C60.748 70.1239 62.652 70.4163 62.6799 70.418C63.3106 70.452 63.9402 70.4064 64.5716 70.3741C65.562 70.3231 66.529 70.0552 67.4042 69.5891C67.9669 69.2895 68.2331 69.1406 68.7053 68.8428C68.7053 68.8428 68.8502 68.7448 69.1297 68.5368C69.5887 68.1947 69.8722 67.954 70.254 67.5576C70.5356 67.2652 70.7776 66.9197 70.9646 66.5304C71.2305 65.9755 71.4981 64.9164 71.6045 64.0369C71.6858 63.365 71.6613 62.9978 71.6525 62.7704C71.6378 62.4045 71.3356 62.0281 71.0044 61.8683L69.0273 60.9796C69.0273 60.9796 66.071 59.693 64.2629 58.8682C64.0745 58.7822 63.8685 58.7424 63.6614 58.7298C63.2079 58.7019 62.6996 58.8202 62.3762 59.1609C62.3592 59.1541 62.1342 59.3486 59.6743 62.3287C59.5386 62.4909 59.2207 62.8435 58.6709 62.8105C58.588 62.8047 58.5053 62.7928 58.4248 62.7717C58.2021 62.7129 57.9851 62.6354 57.773 62.5456C57.3524 62.3671 57.2048 62.2995 56.9175 62.1757C54.9547 61.3182 53.1534 60.1711 51.5612 58.7672C51.1341 58.3912 50.737 57.9862 50.3277 57.5894C48.899 56.2046 47.7293 54.7317 46.8592 53.2789C46.8117 53.1997 46.7385 53.0851 46.6597 52.9569C46.5173 52.7254 46.3603 52.45 46.3111 52.261C46.1847 51.7608 46.52 51.3589 46.52 51.3589C46.52 51.3589 47.3475 50.4542 47.732 49.9622C48.1019 49.4886 48.4213 49.0255 48.6246 48.6954C49.0251 48.0515 49.1519 47.3861 48.9415 46.8727C47.9876 44.5472 47.0034 42.2342 45.9891 39.9344C45.7889 39.4805 45.1935 39.1508 44.652 39.0882C44.4686 39.0671 44.2853 39.0458 44.1012 39.0337C43.6454 39.0114 43.1887 39.0163 42.7335 39.0483Z" fill="white"/>
</svg>
